<?xml version="1.0" standalone="no"?>
<!DOCTYPE svg PUBLIC "-//W3C//DTD SVG 20010904//EN"
 "http://www.w3.org/TR/2001/REC-SVG-20010904/DTD/svg10.dtd">
<svg version="1.0" xmlns="http://www.w3.org/2000/svg"
 width="500.000000pt" height="500.000000pt" viewBox="0 0 500.000000 500.000000"
 preserveAspectRatio="xMidYMid meet">
<metadata>
Created by potrace 1.14, written by Peter Selinger 2001-2017
</metadata>
<g transform="translate(0.000000,500.000000) scale(0.100000,-0.100000)"
fill="#000000" stroke="none">
<path d="M2225 4730 c-132 -8 -210 -31 -505 -150 -195 -79 -240 -100 -296
-135 -63 -41 -201 -177 -242 -240 -15 -22 -44 -63 -64 -91 -21 -28 -38 -59
-38 -68 0 -10 -8 -30 -19 -44 -61 -87 -83 -207 -54 -302 7 -25 16 -85 19 -135
4 -49 15 -110 25 -135 11 -29 22 -97 29 -190 8 -98 18 -160 31 -192 16 -40 19
-70 18 -183 l-1 -136 45 -67 c25 -37 63 -92 84 -122 43 -63 147 -170 164 -170
15 0 38 -31 39 -52 0 -9 11 -26 26 -37 14 -11 43 -43 66 -71 22 -28 58 -60 79
-70 23 -12 44 -33 52 -52 22 -50 55 -176 62 -240 6 -49 4 -60 -16 -88 -35 -47
-31 -108 13 -195 29 -58 35 -78 31 -114 -4 -28 -2 -41 5 -37 5 3 15 -1 22 -9
11 -13 7 -15 -29 -15 -35 0 -43 -4 -51 -25 -23 -60 -100 -6 -100 69 0 20 -4
36 -10 36 -5 0 -25 -30 -44 -67 -19 -38 -45 -78 -57 -90 -13 -11 -127 -74
-254 -138 -369 -188 -498 -258 -503 -274 -5 -14 112 -72 173 -85 31 -7 50 -17
50 -25 0 -21 -180 -93 -240 -96 -27 -1 -57 1 -65 6 -31 16 -97 37 -137 44 -34
5 -53 2 -95 -18 -65 -29 -187 -120 -214 -157 -19 -27 -87 -113 -125 -158 -10
-12 -19 -25 -19 -28 0 -3 -18 -32 -40 -65 l-40 -60 0 -130 0 -129 215 0 c156
0 215 3 215 12 0 6 -44 56 -98 110 -91 93 -101 100 -139 101 l-42 2 5 49 c4
50 36 117 72 149 32 29 135 88 164 94 15 3 29 11 32 19 7 18 51 39 158 75 51
17 100 37 108 44 10 9 29 12 57 8 27 -4 70 2 123 16 78 21 190 27 190 9 0 -4
-7 -8 -16 -8 -17 0 -17 -1 11 -47 24 -39 38 -43 29 -7 -5 18 -1 29 12 39 16
11 17 17 7 33 -6 10 -8 23 -5 28 10 15 104 32 200 38 68 5 82 3 82 -10 0 -8
-6 -16 -12 -18 -7 -2 -33 -9 -58 -16 -25 -6 -52 -16 -60 -21 -21 -13 -28 -15
-81 -30 -41 -11 -86 -49 -59 -49 14 0 13 -37 -2 -42 -6 -2 -8 -9 -4 -16 5 -8
14 -8 33 -1 20 7 29 6 42 -6 9 -9 25 -22 36 -30 18 -12 18 -15 5 -29 -8 -8
-43 -24 -76 -35 -60 -20 -64 -20 -120 -4 -74 21 -288 23 -360 3 -67 -19 -144
-68 -144 -92 0 -10 20 -40 44 -66 91 -99 169 -199 194 -249 l26 -53 1038 0
c949 0 1038 1 1038 16 0 12 6 15 23 9 12 -4 36 -6 54 -6 17 1 34 -3 38 -9 4
-6 64 -10 155 -10 l149 0 3 38 c3 32 7 37 29 40 19 2 33 -4 48 -24 11 -15 21
-33 21 -40 0 -12 90 -14 535 -14 356 0 535 3 535 10 0 11 -31 132 -55 214 -8
27 -25 67 -39 90 -27 47 -79 216 -78 255 1 41 -68 213 -98 246 -49 53 -143
237 -142 278 1 33 0 34 -101 42 -64 6 -82 11 -95 28 -10 12 -49 55 -88 97 -83
89 -137 163 -153 211 -12 38 -115 169 -131 169 -17 0 -180 172 -180 189 0 9 8
30 18 46 80 130 112 198 112 235 0 18 9 68 20 112 25 95 22 113 -10 71 l-23
-32 -23 35 c-29 43 -30 54 -4 47 15 -4 20 0 20 15 0 22 -26 37 -33 19 -3 -7
-8 2 -12 18 -17 71 -27 93 -50 105 -14 7 -25 18 -25 23 0 13 -32 36 -50 37 -9
0 -23 9 -33 20 -9 11 -22 20 -29 20 -7 0 -35 11 -63 25 -75 37 -85 34 -85 -21
l0 -46 -32 6 c-80 17 -103 18 -155 6 -49 -12 -61 -12 -103 3 -51 18 -135 23
-144 8 -3 -5 -29 -16 -57 -25 -48 -16 -52 -16 -70 0 -24 22 -24 45 1 75 32 39
35 44 35 54 1 6 4 39 9 74 7 50 14 70 38 95 29 30 66 87 98 151 8 16 22 31 31
33 9 2 45 -21 79 -50 121 -103 115 -100 207 -113 80 -12 91 -12 172 9 47 13
104 31 125 40 51 21 116 87 116 118 0 13 3 33 6 45 4 14 -1 28 -14 41 -16 16
-20 32 -19 79 3 135 -2 169 -28 197 -14 15 -25 31 -25 35 0 5 -13 24 -30 42
-16 19 -30 37 -30 41 0 4 -25 4 -55 1 -38 -4 -55 -2 -55 6 0 6 5 11 10 11 6 0
16 11 22 25 6 14 19 25 29 25 9 0 19 4 21 10 2 5 14 11 27 12 20 2 30 -5 48
-37 13 -24 23 -33 23 -22 0 9 5 17 10 17 6 0 10 -6 10 -14 0 -8 6 -16 14 -19
8 -3 24 -27 36 -54 20 -45 81 -264 101 -363 9 -45 25 -102 37 -130 3 -8 6 -19
7 -25 0 -5 7 -20 13 -33 7 -12 10 -27 7 -32 -11 -19 8 -10 26 12 28 32 43 95
40 173 -9 240 -7 291 13 366 19 72 19 84 7 180 -7 57 -16 156 -20 219 -6 105
-9 120 -39 171 -24 42 -33 72 -37 120 -5 62 -6 65 -68 127 -59 60 -138 112
-171 112 -9 0 -20 9 -25 19 -6 10 -31 31 -57 46 -26 15 -63 42 -83 59 -20 18
-58 45 -85 60 -27 16 -64 38 -82 51 -42 28 -144 61 -329 104 -94 23 -174 25
-400 11z m681 -1199 c10 -13 16 -13 38 -3 34 15 33 16 39 -10 6 -21 7 -21 25
-5 23 21 42 22 67 3 19 -14 19 -15 -6 -38 -14 -13 -30 -23 -36 -21 -5 2 -23
-9 -39 -24 -42 -40 -72 -54 -129 -59 -59 -6 -138 -25 -145 -34 -3 -4 -29 -19
-57 -34 -46 -23 -58 -25 -94 -17 -23 5 -46 14 -52 20 -6 6 -24 11 -40 11 -16
0 -46 5 -67 11 -34 10 -37 14 -35 47 2 20 8 38 14 40 6 2 11 12 11 23 0 13 7
19 21 19 11 0 30 5 42 12 62 35 140 42 200 19 37 -14 47 -14 53 3 3 8 22 17
42 21 20 4 39 10 42 13 24 32 84 33 106 3z m282 -434 c4 -17 -52 -52 -68 -42
-12 7 -1 67 14 77 14 9 50 -14 54 -35z m-928 -63 c11 -12 11 -18 -2 -31 -19
-18 -38 -10 -38 16 0 33 20 40 40 15z m100 -315 c11 -19 -3 -61 -30 -93 -42
-50 -51 -54 -121 -66 -55 -9 -77 -10 -88 -1 -9 6 -24 14 -33 17 -9 4 -22 22
-29 42 -10 30 -9 37 5 47 9 7 16 16 16 21 0 11 86 35 148 41 24 3 56 11 70 19
28 14 44 7 62 -27z m1017 -461 c-3 -8 -6 -5 -6 6 -1 11 2 17 5 13 3 -3 4 -12
1 -19z m3 -34 c0 -7 -7 -14 -15 -18 -8 -3 -15 -4 -15 -2 0 3 -3 11 -6 20 -4
11 0 14 15 13 12 -1 21 -7 21 -13z m-503 -50 c-3 -3 -12 -4 -19 -1 -8 3 -5 6
6 6 11 1 17 -2 13 -5z m-1092 -814 c3 -6 -1 -7 -9 -4 -18 7 -21 14 -7 14 6 0
13 -4 16 -10z m55 -12 c0 -7 25 -29 55 -48 47 -30 87 -74 104 -115 2 -5 17
-29 33 -52 15 -23 37 -61 48 -85 12 -24 38 -72 60 -108 22 -36 40 -70 40 -76
0 -7 -37 -19 -85 -28 -47 -8 -95 -20 -106 -27 -12 -6 -40 -8 -68 -4 -45 6 -49
9 -69 53 -11 26 -27 58 -35 72 -31 56 -47 92 -47 108 0 9 -7 30 -15 46 -8 15
-15 35 -15 43 0 18 40 96 54 105 6 5 2 8 -11 8 -13 0 -23 2 -23 3 0 10 32 67
41 72 5 4 9 15 9 26 0 10 7 19 15 19 8 0 15 -6 15 -12z m1573 -403 c43 -18 51
-29 53 -78 2 -47 9 -54 30 -36 14 12 20 9 46 -20 36 -40 33 -58 -11 -88 -38
-26 -60 -18 -62 21 0 19 -1 19 -10 -4 -6 -14 -8 -36 -6 -49 6 -29 -10 -91 -23
-91 -6 0 -10 -10 -10 -22 0 -35 -57 -118 -80 -118 -11 0 -20 5 -20 10 0 15
-36 12 -50 -5 -14 -16 -50 -21 -50 -6 0 5 -45 11 -100 13 -67 2 -103 7 -112
17 -11 11 -11 14 0 18 10 4 6 9 -10 17 -15 8 -22 20 -21 34 2 16 -3 22 -17 23
-11 1 -24 3 -30 4 -5 1 -16 3 -22 4 -7 0 -2 8 10 17 13 9 29 13 37 10 10 -3
12 0 8 11 -4 10 -2 14 5 9 6 -3 13 -2 17 4 4 7 13 6 27 -1 16 -9 25 -6 47 13
14 14 38 32 53 41 34 21 55 57 39 67 -14 8 -3 40 14 40 7 0 25 16 39 35 15 19
33 35 41 35 7 0 30 16 49 35 20 19 43 35 51 35 8 0 15 5 15 10 0 14 11 13 53
-5z m367 -109 c0 -2 3 -11 6 -19 4 -10 -2 -14 -20 -14 -24 0 -34 15 -19 30 7
8 33 10 33 3z m-1408 -52 c17 -9 54 -23 82 -31 60 -18 72 -27 143 -116 80
-100 58 -122 -67 -69 -116 50 -250 169 -250 223 0 15 59 10 92 -7z m1578 -238
c-1 -5 9 -14 22 -20 12 -6 28 -22 34 -35 7 -13 17 -27 23 -31 7 -3 14 -30 18
-58 3 -29 12 -57 19 -63 10 -8 11 -16 4 -29 -8 -15 -23 -17 -102 -16 -97 2
-118 7 -118 32 0 9 -5 12 -11 8 -8 -4 -8 -1 -1 13 6 11 8 29 5 41 -3 12 -2 30
2 39 5 10 7 24 6 31 -1 6 3 12 9 12 5 0 10 9 10 21 0 14 10 24 30 32 17 6 30
18 30 25 0 8 5 12 11 10 6 -2 10 -7 9 -12z m-975 -46 c3 -5 -1 -10 -10 -10 -9
0 -13 5 -10 10 3 6 8 10 10 10 2 0 7 -4 10 -10z m-68 -36 c-3 -3 -12 -4 -19
-1 -8 3 -5 6 6 6 11 1 17 -2 13 -5z m37 -29 c3 -8 1 -15 -4 -15 -6 0 -10 7
-10 15 0 8 2 15 4 15 2 0 6 -7 10 -15z m-1594 -140 c10 -12 9 -15 -7 -15 -10
0 -28 7 -39 15 -18 14 -18 14 7 15 15 0 32 -7 39 -15z m1180 -95 c0 -5 -5 -10
-11 -10 -5 0 -7 5 -4 10 3 6 8 10 11 10 2 0 4 -4 4 -10z m-2400 -9 c0 -6 -4
-13 -10 -16 -5 -3 -10 1 -10 9 0 9 5 16 10 16 6 0 10 -4 10 -9z"/>
<path d="M3720 1432 c0 -5 16 -27 36 -50 43 -51 91 -79 107 -63 6 6 21 11 34
11 13 0 28 9 35 20 16 25 54 26 117 3 51 -18 84 -13 75 11 -9 22 -55 34 -220
56 -168 22 -184 23 -184 12z"/>
<path d="M4474 1306 c-4 -10 -4 -42 -1 -71 8 -77 11 -76 -178 -24 -100 27
-260 32 -275 9 -15 -23 -13 -26 34 -44 24 -9 47 -24 50 -31 4 -11 23 -15 71
-15 64 0 67 -1 105 -40 45 -46 57 -47 155 -21 113 31 119 33 147 54 50 37 247
9 365 -51 53 -28 53 -28 53 6 0 24 -11 33 -83 74 -135 76 -316 151 -395 164
-34 5 -43 3 -48 -10z"/>
<path d="M4645 886 c-17 -6 -50 -23 -75 -37 -25 -14 -64 -32 -88 -39 -24 -7
-45 -17 -48 -22 -11 -17 53 -173 105 -258 16 -25 41 -82 41 -93 0 -5 6 -23 14
-40 32 -76 36 -90 31 -107 -3 -10 10 -65 29 -123 18 -57 37 -118 41 -136 l7
-31 149 0 149 0 0 155 0 154 -85 -4 c-84 -4 -85 -4 -105 25 -15 21 -23 54 -29
117 -4 48 -6 95 -3 104 7 28 185 42 210 17 9 -9 12 24 12 149 l0 161 -132 -3
c-96 -1 -141 2 -160 12 -15 7 -28 12 -30 12 -2 -1 -17 -6 -33 -13z"/>
<path d="M415 240 c-3 -5 -3 -10 2 -10 4 0 1 -5 -9 -10 -20 -12 -13 -49 15
-69 19 -14 19 -14 -3 -26 -24 -13 -27 -12 69 -43 71 -23 97 35 42 95 -22 25
-31 29 -41 20 -9 -8 -11 -8 -7 -1 4 7 -2 14 -13 17 -11 3 -20 12 -20 21 0 18
-25 22 -35 6z"/>
</g>
</svg>
